<svg width="24" height="24" viewBox="0 0 24 24" fill="none" xmlns="http://www.w3.org/2000/svg">
<path d="M21.4426 3.21756C21.21 3.02223 20.9287 2.89389 20.6288 2.84633C20.3288 2.79876 20.0216 2.83376 19.74 2.94756L2.55755 9.82506C2.30708 9.9291 2.09305 10.105 1.94248 10.3306C1.79191 10.5562 1.71155 10.8213 1.71155 11.0926C1.71155 11.3638 1.79191 11.6289 1.94248 11.8545C2.09305 12.0801 2.30708 12.256 2.55755 12.3601L3.66755 12.8176C3.85057 12.895 4.05683 12.8966 4.24104 12.8221C4.42525 12.7475 4.57235 12.603 4.65005 12.4201C4.68816 12.329 4.70792 12.2313 4.70819 12.1325C4.70845 12.0338 4.68921 11.936 4.65159 11.8447C4.61396 11.7534 4.55868 11.6705 4.48891 11.6006C4.41915 11.5307 4.33628 11.4753 4.24505 11.4376L3.42005 11.1001L20.3025 4.35006C20.3285 4.33414 20.3584 4.32572 20.3888 4.32572C20.4192 4.32572 20.4491 4.33414 20.475 4.35006C20.4995 4.37084 20.518 4.3978 20.5286 4.42813C20.5391 4.45846 20.5413 4.49107 20.535 4.52256L17.4525 18.9076C17.4424 18.9588 17.4191 19.0065 17.3849 19.046C17.3507 19.0854 17.3068 19.1153 17.2575 19.1326C17.2092 19.1517 17.1566 19.1577 17.1052 19.1498C17.0538 19.1419 17.0054 19.1204 16.965 19.0876L10.965 14.4076L16.8376 8.47506C16.963 8.3449 17.0372 8.17382 17.0466 7.99329C17.0559 7.81277 16.9997 7.63494 16.8883 7.49255C16.777 7.35015 16.6179 7.25277 16.4405 7.21832C16.263 7.18387 16.0791 7.21467 15.9225 7.30506L7.31255 12.4051C7.21692 12.4483 7.13142 12.5111 7.06159 12.5894C6.99176 12.6678 6.93914 12.7599 6.90714 12.8598C6.87514 12.9598 6.86448 13.0653 6.87583 13.1696C6.88718 13.274 6.9203 13.3747 6.97305 13.4655C7.02579 13.5562 7.09699 13.6348 7.18204 13.6963C7.26709 13.7578 7.36409 13.8007 7.46678 13.8224C7.56946 13.844 7.67555 13.8439 7.77817 13.8219C7.8808 13.8 7.97768 13.7568 8.06255 13.6951L11.685 11.5576L9.92255 13.3501C9.76131 13.5016 9.63558 13.6868 9.55437 13.8926C9.47316 14.0984 9.43848 14.3197 9.45282 14.5404C9.46716 14.7612 9.53015 14.9761 9.6373 15.1696C9.74444 15.3632 9.89307 15.5307 10.0725 15.6601L16.0725 20.2726C16.3883 20.5163 16.7761 20.6482 17.175 20.6476C17.3875 20.646 17.598 20.608 17.7976 20.5351C18.0841 20.4322 18.3393 20.2575 18.539 20.0277C18.7386 19.7979 18.8758 19.5206 18.9375 19.2226L21.9975 4.85256C22.0625 4.55532 22.0451 4.246 21.9473 3.9579C21.8496 3.6698 21.675 3.41383 21.4426 3.21756Z" fill="white"/>
</svg>
